{
  "accessors": [
    {
      "bufferView": 2,
      "componentType": 5126,
      "count": 65532,
      "max": [
        183.70938110351563,
        50.869598388671875,
        213.33250427246094
      ],
      "min": [
        -74.64199829101563,
        -153.62289428710938,
        11.075499534606934
      ],
      "type": "VEC3"
    },
    {
      "bufferView": 2,
      "byteOffset": 786384,
      "componentType": 5126,
      "count": 65532,
      "max": [
        0.9999972581863403,
        1.0,
        1.0
      ],
      "min": [
        -0.9999998807907104,
        -1.0,
        -1.0
      ],
      "type": "VEC3"
    },
    {
      "bufferView": 1,
      "componentType": 5126,
      "count": 65532,
      "max": [
        0.9976000189781189,
        0.9976000189781189
      ],
      "min": [
        0.0010000000474974513,
        0.0024999999441206455
      ],
      "type": "VEC2"
    },
    {
      "bufferView": 0,
      "componentType": 5125,
      "count": 319767,
      "type": "SCALAR"
    },
    {
      "bufferView": 2,
      "byteOffset": 1572768,
      "componentType": 5126,
      "count": 51715,
      "max": [
        184.43490600585938,
        152.67300415039063,
        163.95449829101563
      ],
      "min": [
        -137.92861938476563,
        -181.07492065429688,
        -2.643501043319702
      ],
      "type": "VEC3"
    },
    {
      "bufferView": 2,
      "byteOffset": 2193348,
      "componentType": 5126,
      "count": 51715,
      "max": [
        1.0,
        1.0,
        1.0
      ],
      "min": [
        -1.0,
        -1.0,
        -1.0
      ],
      "type": "VEC3"
    },
    {
      "bufferView": 1,
      "byteOffset": 524256,
      "componentType": 5126,
      "count": 51715,
      "max": [
        0.9962000250816345,
        0.9947999715805054
      ],
      "min": [
        0.0010000000474974513,
        0.0024999999441206455
      ],
      "type": "VEC2"
    },
    {
      "bufferView": 0,
      "byteOffset": 1279068,
      "componentType": 5125,
      "count": 241818,
      "type": "SCALAR"
    },
    {
      "bufferView": 2,
      "byteOffset": 2813928,
      "componentType": 5126,
      "count": 65532,
      "max": [
        188.49600219726563,
        150.83688354492188,
        180.8842010498047
      ],
      "min": [
        -142.49081420898438,
        -173.11581420898438,
        -1.254897952079773
      ],
      "type": "VEC3"
    },
    {
      "bufferView": 2,
      "byteOffset": 3600312,
      "componentType": 5126,
      "count": 65532,
      "max": [
        1.0,
        1.0,
        1.0
      ],
      "min": [
        -1.0,
        -1.0,
        -1.0
      ],
      "type": "VEC3"
    },
    {
      "bufferView": 1,
      "byteOffset": 937976,
      "componentType": 5126,
      "count": 65532,
      "max": [
        0.9894000291824341,
        0.987500011920929
      ],
      "min": [
        0.0017999999690800905,
        0.0017999999690800905
      ],
      "type": "VEC2"
    },
    {
      "bufferView": 0,
      "byteOffset": 2246340,
      "componentType": 5125,
      "count": 321738,
      "type": "SCALAR"
    },
    {
      "bufferView": 2,
      "byteOffset": 4386696,
      "componentType": 5126,
      "count": 13834,
      "max": [
        154.1864013671875,
        59.273101806640625,
        195.4929962158203
      ],
      "min": [
        -81.33159637451172,
        -60.44409942626953,
        2.0374979972839355
      ],
      "type": "VEC3"
    },
    {
      "bufferView": 2,
      "byteOffset": 4552704,
      "componentType": 5126,
      "count": 13834,
      "max": [
        1.0,
        1.0,
        1.0
      ],
      "min": [
        -1.0,
        -1.0,
        -1.0
      ],
      "type": "VEC3"
    },
    {
      "bufferView": 1,
      "byteOffset": 1462232,
      "componentType": 5126,
      "count": 13834,
      "max": [
        0.9799000024795532,
        0.9851999878883362
      ],
      "min": [
        0.0017999999690800905,
        0.0017999999690800905
      ],
      "type": "VEC2"
    },
    {
      "bufferView": 0,
      "byteOffset": 3533292,
      "componentType": 5125,
      "count": 66054,
      "type": "SCALAR"
    },
    {
      "bufferView": 2,
      "byteOffset": 4718712,
      "componentType": 5126,
      "count": 1565,
      "max": [
        310.5927429199219,
        313.84429931640625,
        323.4646911621094
      ],
      "min": [
        -315.72314453125,
        -307.60162353515625,
        -4.988129138946533
      ],
      "type": "VEC3"
    },
    {
      "bufferView": 2,
      "byteOffset": 4737492,
      "componentType": 5126,
      "count": 1565,
      "max": [
        0.999023973941803,
        0.996633768081665,
        0.9999330043792725
      ],
      "min": [
        -0.9966614842414856,
        -0.9988163709640503,
        -1.0
      ],
      "type": "VEC3"
    },
    {
      "bufferView": 1,
      "byteOffset": 1572904,
      "componentType": 5126,
      "count": 1565,
      "max": [
        0.9997000098228455,
        0.9514999985694885
      ],
      "min": [
        0.0019000000320374966,
        0.0019000000320374966
      ],
      "type": "VEC2"
    },
    {
      "bufferView": 0,
      "byteOffset": 3797508,
      "componentType": 5125,
      "count": 8232,
      "type": "SCALAR"
    }
  ],
  "asset": {
    "extras": {
      "author": "Alena Shek (https://sketchfab.com/ShekAlena)",
      "license": "CC-BY-4.0 (http://creativecommons.org/licenses/by/4.0/)",
      "source": "https://sketchfab.com/3d-models/sea-house-bc4782005e9646fb9e6e18df61bfd28d",
      "title": "Sea House"
    },
    "generator": "Sketchfab-12.57.0",
    "version": "2.0"
  },
  "bufferViews": [
    {
      "buffer": 0,
      "byteLength": 3830436,
      "name": "floatBufferViews",
      "target": 34963
    },
    {
      "buffer": 0,
      "byteLength": 1585424,
      "byteOffset": 3830436,
      "byteStride": 8,
      "name": "floatBufferViews",
      "target": 34962
    },
    {
      "buffer": 0,
      "byteLength": 4756272,
      "byteOffset": 5415860,
      "byteStride": 12,
      "name": "floatBufferViews",
      "target": 34962
    }
  ],
  "buffers": [
    {
      "byteLength": 10172132,
      "uri": "scene.bin"
    }
  ],
  "extensionsUsed": [
    "KHR_materials_unlit"
  ],
  "images": [
    {
      "uri": "textures/11112_sheet_Material__25_baseColor.png"
    },
    {
      "uri": "textures/11112_sheet_Material__37_baseColor.png"
    },
    {
      "uri": "textures/default_baseColor.png"
    }
  ],
  "materials": [
    {
      "alphaMode": "BLEND",
      "doubleSided": true,
      "extensions": {
        "KHR_materials_unlit": {}
      },
      "name": "11112_sheet_Material__25",
      "pbrMetallicRoughness": {
        "baseColorTexture": {
          "index": 0
        },
        "metallicFactor": 0.0
      }
    },
    {
      "alphaMode": "BLEND",
      "doubleSided": true,
      "extensions": {
        "KHR_materials_unlit": {}
      },
      "name": "11112_sheet_Material__37",
      "pbrMetallicRoughness": {
        "baseColorTexture": {
          "index": 1
        },
        "metallicFactor": 0.0
      }
    },
    {
      "alphaMode": "BLEND",
      "extensions": {
        "KHR_materials_unlit": {}
      },
      "name": "default",
      "pbrMetallicRoughness": {
        "baseColorTexture": {
          "index": 2
        },
        "metallicFactor": 0.0
      }
    }
  ],
  "meshes": [
    {
      "name": "Object_0",
      "primitives": [
        {
          "attributes": {
            "NORMAL": 1,
            "POSITION": 0,
            "TEXCOORD_0": 2
          },
          "indices": 3,
          "material": 0,
          "mode": 4
        }
      ]
    },
    {
      "name": "Object_1",
      "primitives": [
        {
          "attributes": {
            "NORMAL": 5,
            "POSITION": 4,
            "TEXCOORD_0": 6
          },
          "indices": 7,
          "material": 0,
          "mode": 4
        }
      ]
    },
    {
      "name": "Object_2",
      "primitives": [
        {
          "attributes": {
            "NORMAL": 9,
            "POSITION": 8,
            "TEXCOORD_0": 10
          },
          "indices": 11,
          "material": 1,
          "mode": 4
        }
      ]
    },
    {
      "name": "Object_3",
      "primitives": [
        {
          "attributes": {
            "NORMAL": 13,
            "POSITION": 12,
            "TEXCOORD_0": 14
          },
          "indices": 15,
          "material": 1,
          "mode": 4
        }
      ]
    },
    {
      "name": "Object_4",
      "primitives": [
        {
          "attributes": {
            "NORMAL": 17,
            "POSITION": 16,
            "TEXCOORD_0": 18
          },
          "indices": 19,
          "material": 2,
          "mode": 4
        }
      ]
    }
  ],
  "nodes": [
    {
      "children": [
        1
      ],
      "matrix": [
        1.0,
        0.0,
        0.0,
        0.0,
        0.0,
        2.220446049250313e-16,
        -1.0,
        0.0,
        0.0,
        1.0,
        2.220446049250313e-16,
        0.0,
        0.0,
        0.0,
        0.0,
        1.0
      ],
      "name": "Sketchfab_model"
    },
    {
      "children": [
        2,
        3,
        4,
        5,
        6
      ],
      "name": "sea.obj.cleaner.materialmerger.gles"
    },
    {
      "mesh": 0,
      "name": "Object_2"
    },
    {
      "mesh": 1,
      "name": "Object_3"
    },
    {
      "mesh": 2,
      "name": "Object_4"
    },
    {
      "mesh": 3,
      "name": "Object_5"
    },
    {
      "mesh": 4,
      "name": "Object_6"
    }
  ],
  "samplers": [
    {
      "magFilter": 9729,
      "minFilter": 9987,
      "wrapS": 10497,
      "wrapT": 10497
    }
  ],
  "scene": 0,
  "scenes": [
    {
      "name": "Sketchfab_Scene",
      "nodes": [
        0
      ]
    }
  ],
  "textures": [
    {
      "sampler": 0,
      "source": 0
    },
    {
      "sampler": 0,
      "source": 1
    },
    {
      "sampler": 0,
      "source": 2
    }
  ]
}
