<?xml version="1.0" encoding="utf-8"?>

<!DOCTYPE svg PUBLIC "-//W3C//DTD SVG 1.1//EN" "http://www.w3.org/Graphics/SVG/1.1/DTD/svg11.dtd">
<svg version="1.1" id="Food_Icons" xmlns="http://www.w3.org/2000/svg" xmlns:xlink="http://www.w3.org/1999/xlink" x="0px" y="0px"
	 width="72.869px" height="73.806px" viewBox="0 0 72.869 73.806" enable-background="new 0 0 72.869 73.806" xml:space="preserve">
<g id="_x31_1">
	<g>
		<path fill="#FDC784" d="M1.957,38.167c0,1.634,0.665,3.122,1.742,4.198c1.076,1.076,2.564,1.742,4.208,1.742h57.064
			c3.278,0,5.94-2.662,5.94-5.94c0-1.644-0.665-3.132-1.742-4.208c-0.714-0.714-1.595-1.243-2.593-1.517v-1.84
			c0-15.815-12.82-28.645-28.645-28.645h-3.22c-15.824,0-28.645,12.83-28.645,28.645v1.908C3.68,33.283,1.957,35.524,1.957,38.167z"
			/>
	</g>
	<g>
		<path fill="#F1BA7B" d="M1.409,38.098c-0.088,3.357,2.838,6.097,6.195,6.097h6.439c0,0-0.01-0.049-0.02-0.137H58.62
			c-0.02,0.049-0.02,0.078-0.02,0.078h6.439c3.357,0,6.283-2.74,6.195-6.097c-0.039-1.585-0.695-3.004-1.742-4.051
			c-0.714-0.714-1.595-1.243-2.593-1.517v-1.84c0-15.825-12.82-28.645-28.645-28.645h-3.22c0.078,0.02,0.166,0.039,0.245,0.059
			h-0.891c-15.825,0-28.645,12.83-28.645,28.645v1.84c-0.998,0.274-1.879,0.802-2.593,1.517C2.104,35.094,1.448,36.513,1.409,38.098
			z M19.8,34.996c-3.404,0-5.983-3.055-5.431-6.414c0.324-1.969,0.78-4.009,1.417-6.044c6.273-20.072,34.888-20.042,41.103,0.049
			c0.63,2.025,1.081,4.05,1.4,6.004c0.548,3.356-2.032,6.405-5.432,6.405H19.8z"/>
	</g>
	<g>
		<path fill="#FFFFFF" d="M7.976,44.107c4.12,10.736,14.533,18.359,26.736,18.359h3.22c12.204,0,22.616-7.624,26.736-18.359H7.976z"
			/>
		<path d="M37.932,64.466h-3.22c-12.6,0-24.095-7.894-28.604-19.643c-0.236-0.615-0.154-1.307,0.219-1.85s0.99-0.867,1.648-0.867
			h56.692c0.658,0,1.275,0.324,1.648,0.867s0.455,1.234,0.219,1.85C62.026,56.572,50.531,64.466,37.932,64.466z M11.067,46.107
			c4.532,8.695,13.691,14.359,23.645,14.359h3.22c9.953,0,19.112-5.664,23.645-14.359H11.067z"/>
	</g>
	<g>
		<path fill="#EDEDED" d="M7.766,46.515l7.011,21.897c0.647,2.022,2.527,3.393,4.649,3.393h34.02c2.123,0,4.002-1.372,4.649-3.393
			l7.011-21.897c0.38-1.188-0.506-2.403-1.754-2.403H9.52C8.272,44.112,7.386,45.327,7.766,46.515z"/>
	</g>
	<g>
		<path fill="#FCFAFB" d="M19.356,46.46l5.974,21.897c0.552,2.022,2.153,3.393,3.962,3.393h14.06c1.809,0,3.41-1.372,3.962-3.393
			l5.974-21.897c0.324-1.188-0.431-2.403-1.494-2.403H20.85C19.787,44.057,19.032,45.272,19.356,46.46z"/>
	</g>
	<g>
		<path d="M12.913,69.009L5.902,47.112c-0.368-1.152-0.163-2.422,0.55-3.398c0.713-0.976,1.86-1.559,3.069-1.559h53.833
			c1.209,0,2.356,0.583,3.069,1.56s0.918,2.247,0.549,3.398L59.96,69.009c-0.91,2.844-3.527,4.754-6.514,4.754h-34.02
			C16.441,73.763,13.824,71.853,12.913,69.009z M9.678,46.069l6.963,21.746c0.389,1.216,1.509,2.033,2.785,2.033h34.02
			c1.277,0,2.396-0.817,2.785-2.033l6.963-21.746H9.678z"/>
	</g>
	<g>
		<path d="M66.578,34.215h-4.435c-1.104,0-2-0.896-2-2c0-1.104,0.896-2,2-2h4.435c1.104,0,2,0.896,2,2
			C68.578,33.32,67.683,34.215,66.578,34.215z"/>
	</g>
	<g>
		<path d="M10.612,34.515H6.178c-1.104,0-2-0.896-2-2c0-1.104,0.896-2,2-2h4.435c1.104,0,2,0.896,2,2
			C12.612,33.619,11.717,34.515,10.612,34.515z"/>
	</g>
	<g>
		<path d="M26.387,73.806c-0.958,0-1.804-0.689-1.97-1.665l-2.909-17.128c-0.185-1.089,0.548-2.122,1.637-2.307
			c1.097-0.191,2.121,0.549,2.307,1.637l2.909,17.128c0.185,1.089-0.548,2.122-1.637,2.307
			C26.61,73.797,26.497,73.806,26.387,73.806z"/>
	</g>
	<g>
		<path d="M46.505,73.806c-0.111,0-0.224-0.009-0.337-0.028c-1.089-0.185-1.822-1.218-1.637-2.307l2.91-17.128
			c0.186-1.089,1.217-1.826,2.307-1.637c1.089,0.185,1.822,1.218,1.637,2.307l-2.91,17.128
			C48.309,73.116,47.463,73.806,46.505,73.806z"/>
	</g>
	<g>
		<path d="M36.436,73.293c-1.104,0-2-0.896-2-2V53.273c0-1.104,0.896-2,2-2s2,0.896,2,2v18.021
			C38.436,72.398,37.541,73.293,36.436,73.293z"/>
	</g>
	<g>
		<path d="M44.038,34.515H28.835c-1.104,0-2-0.896-2-2c0-1.104,0.896-2,2-2h15.203c1.104,0,2,0.896,2,2
			C46.038,33.619,45.143,34.515,44.038,34.515z"/>
	</g>
	<g>
		<path fill="#E07659" d="M16.556,22.156c0.486,0,0.971-0.185,1.342-0.556l1.172-1.172c0.741-0.741,0.741-1.943-0.001-2.683
			c-0.742-0.74-1.943-0.74-2.683,0.001l-1.172,1.172c-0.741,0.741-0.741,1.943,0.001,2.683C15.585,21.97,16.07,22.156,16.556,22.156
			z"/>
	</g>
	<g>
		<path fill="#E07659" d="M28.836,26.997c0.485,0,0.971-0.185,1.341-0.556c0.741-0.741,0.741-1.942,0-2.683l-1.172-1.172
			c-0.741-0.741-1.942-0.741-2.683,0c-0.741,0.741-0.741,1.942,0,2.683l1.172,1.172C27.865,26.812,28.351,26.997,28.836,26.997z"/>
	</g>
	<g>
		<path fill="#E07659" d="M56.317,22.094c-0.486,0-0.971-0.185-1.342-0.556l-1.172-1.172c-0.741-0.741-0.741-1.943,0.001-2.683
			c0.742-0.74,1.943-0.74,2.683,0.001l1.172,1.172c0.741,0.741,0.741,1.943-0.001,2.683C57.288,21.908,56.803,22.094,56.317,22.094z
			"/>
	</g>
	<g>
		<path fill="#E07659" d="M44.037,26.935c-0.485,0-0.971-0.185-1.341-0.556c-0.741-0.741-0.741-1.942,0-2.683l1.172-1.172
			c0.741-0.741,1.942-0.741,2.683,0c0.741,0.741,0.741,1.942,0,2.683l-1.172,1.172C45.008,26.75,44.522,26.935,44.037,26.935z"/>
	</g>
	<g>
		<path fill="#E07659" d="M38.92,13.273c0,0.485-0.185,0.971-0.556,1.341c-0.741,0.741-1.942,0.741-2.683,0l-1.172-1.172
			c-0.741-0.741-0.741-1.942,0-2.683c0.741-0.741,1.942-0.741,2.683,0l1.172,1.172C38.734,12.302,38.92,12.787,38.92,13.273z"/>
	</g>
	<g>
		<path d="M2.316,43.749C0.822,42.256,0,40.274,0,38.167c0-2.939,1.604-5.573,4.11-6.937v-0.628C4.11,13.728,17.838,0,34.712,0
			l3.22,0c16.874,0,30.602,13.728,30.602,30.602v0.508c0.741,0.375,1.424,0.869,2.02,1.465c1.493,1.493,2.315,3.479,2.315,5.592
			c0,4.355-3.543,7.897-7.897,7.897H7.907C5.793,46.064,3.807,45.242,2.316,43.749z M34.712,3.915
			c-14.715,0-26.687,11.972-26.687,26.687v3.332l-1.354,0.439c-1.649,0.534-2.756,2.059-2.756,3.794c0,1.061,0.415,2.06,1.169,2.815
			c0.753,0.754,1.756,1.168,2.824,1.168h57.064c2.196,0,3.983-1.787,3.983-3.983c0-1.068-0.415-2.071-1.168-2.824
			c-0.493-0.493-1.075-0.834-1.728-1.014l-1.438-0.395v-3.332c0-14.715-11.972-26.687-26.688-26.687H34.712z"/>
	</g>
</g>
</svg>
